<svg width="35" height="40" viewBox="0 0 35 40" fill="none" xmlns="http://www.w3.org/2000/svg">
<path d="M3.1853 35.7244L0 0H35L31.8105 35.7187L17.4787 39.6922L3.1853 35.7244Z" fill="#E44F26"/>
<path d="M17.5 36.6556L29.0816 33.4448L31.8062 2.92151H17.5V36.6556Z" fill="#F1662A"/>
<path d="M17.5 16.1705H11.7021L11.3024 11.6839H17.5V7.30212H17.4844H6.51379L6.6187 8.47871L7.69464 20.5522H17.5V16.1705Z" fill="#EBEBEB"/>
<path d="M17.5 27.5492L17.4802 27.5549L12.6009 26.238L12.289 22.7437H9.9174H7.89026L8.50407 29.6217L17.4802 32.1138L17.5 32.1082V27.5492Z" fill="#EBEBEB"/>
<path d="M17.4844 16.1705V20.5523H22.8797L22.3722 26.2353L17.4844 27.5537V32.1126L26.4676 29.6219L26.5328 28.882L27.562 17.3471L27.6697 16.1705H26.4889H17.4844Z" fill="white"/>
<path d="M17.4844 7.30212V10.0239V11.6739V11.6839H28.0539H28.068L28.1559 10.7001L28.3558 8.47871L28.4607 7.30212H17.4844Z" fill="white"/>
</svg>
