<svg width="36" height="36" viewBox="0 0 36 36" fill="none" xmlns="http://www.w3.org/2000/svg">
<path d="M7.125 2.8125C6.27962 2.8125 5.46887 3.14832 4.8711 3.7461C4.27332 4.34387 3.9375 5.15462 3.9375 6C3.9375 6.84538 4.27332 7.65613 4.8711 8.2539C5.46887 8.85168 6.27962 9.1875 7.125 9.1875C7.97038 9.1875 8.78113 8.85168 9.3789 8.2539C9.97668 7.65613 10.3125 6.84538 10.3125 6C10.3125 5.15462 9.97668 4.34387 9.3789 3.7461C8.78113 3.14832 7.97038 2.8125 7.125 2.8125ZM4.125 11.8125C4.07527 11.8125 4.02758 11.8323 3.99242 11.8674C3.95725 11.9026 3.9375 11.9503 3.9375 12V31.5C3.9375 31.6035 4.0215 31.6875 4.125 31.6875H10.125C10.1747 31.6875 10.2224 31.6677 10.2576 31.6326C10.2927 31.5974 10.3125 31.5497 10.3125 31.5V12C10.3125 11.9503 10.2927 11.9026 10.2576 11.8674C10.2224 11.8323 10.1747 11.8125 10.125 11.8125H4.125ZM13.875 11.8125C13.8253 11.8125 13.7776 11.8323 13.7424 11.8674C13.7073 11.9026 13.6875 11.9503 13.6875 12V31.5C13.6875 31.6035 13.7715 31.6875 13.875 31.6875H19.875C19.9247 31.6875 19.9724 31.6677 20.0076 31.6326C20.0427 31.5974 20.0625 31.5497 20.0625 31.5V21C20.0625 20.2541 20.3588 19.5387 20.8863 19.0113C21.4137 18.4838 22.1291 18.1875 22.875 18.1875C23.6209 18.1875 24.3363 18.4838 24.8637 19.0113C25.3912 19.5387 25.6875 20.2541 25.6875 21V31.5C25.6875 31.6035 25.7715 31.6875 25.875 31.6875H31.875C31.9247 31.6875 31.9724 31.6677 32.0076 31.6326C32.0427 31.5974 32.0625 31.5497 32.0625 31.5V18.57C32.0625 14.9295 28.8975 12.0825 25.275 12.411C24.1542 12.513 23.0563 12.7904 22.0215 13.233L20.0625 14.073V12C20.0625 11.9503 20.0427 11.9026 20.0076 11.8674C19.9724 11.8323 19.9247 11.8125 19.875 11.8125H13.875Z" fill="#E2E8F0"/>
</svg>
