<svg width="36" height="36" viewBox="0 0 36 36" fill="none" xmlns="http://www.w3.org/2000/svg">
<path d="M18.0015 3C26.286 3 33.0015 9.7155 33.0015 18C33.0015 26.2845 26.286 33 18.0015 33C15.3507 33.0043 12.7465 32.3028 10.4565 30.9675L3.00749 33L5.03549 25.548C3.69913 23.2573 2.99706 20.652 3.00149 18C3.00149 9.7155 9.71699 3 18.0015 3ZM12.8895 10.95L12.5895 10.962C12.3953 10.9738 12.2055 11.0249 12.0315 11.112C11.8688 11.2041 11.7202 11.3193 11.5905 11.454C11.4105 11.6235 11.3085 11.7705 11.199 11.913C10.6442 12.6344 10.3454 13.52 10.35 14.43C10.353 15.165 10.545 15.8805 10.845 16.5495C11.4585 17.9025 12.468 19.335 13.8 20.6625C14.121 20.982 14.436 21.303 14.775 21.6015C16.4301 23.0587 18.4024 24.1096 20.535 24.6705L21.387 24.801C21.6645 24.816 21.942 24.795 22.221 24.7815C22.6578 24.7589 23.0844 24.6407 23.4705 24.435C23.6669 24.3338 23.8586 24.2237 24.045 24.105C24.045 24.105 24.1095 24.063 24.2325 23.97C24.435 23.82 24.5595 23.7135 24.7275 23.538C24.852 23.409 24.96 23.2575 25.0425 23.085C25.1595 22.8405 25.2765 22.374 25.3245 21.9855C25.3605 21.6885 25.35 21.5265 25.3455 21.426C25.3395 21.2655 25.206 21.099 25.0605 21.0285L24.1875 20.637C24.1875 20.637 22.8825 20.0685 22.0845 19.7055C22.001 19.669 21.9115 19.6482 21.8205 19.644C21.7179 19.6335 21.6142 19.645 21.5164 19.6779C21.4186 19.7107 21.3289 19.7641 21.2535 19.8345C21.246 19.8315 21.1455 19.917 20.061 21.231C19.9987 21.3146 19.913 21.3779 19.8147 21.4126C19.7164 21.4473 19.61 21.452 19.509 21.426C19.4113 21.3998 19.3155 21.3667 19.2225 21.327C19.0365 21.249 18.972 21.219 18.8445 21.165C17.9836 20.7893 17.1865 20.2817 16.482 19.6605C16.293 19.4955 16.1175 19.3155 15.9375 19.1415C15.3474 18.5763 14.8331 17.937 14.4075 17.2395L14.319 17.097C14.2554 17.0012 14.204 16.898 14.166 16.7895C14.109 16.569 14.2575 16.392 14.2575 16.392C14.2575 16.392 14.622 15.993 14.7915 15.777C14.9565 15.567 15.096 15.363 15.186 15.2175C15.363 14.9325 15.4185 14.64 15.3255 14.4135C14.9055 13.3875 14.4705 12.366 14.0235 11.352C13.935 11.151 13.6725 11.007 13.434 10.9785C13.353 10.9695 13.272 10.9605 13.191 10.9545C12.9895 10.9445 12.7877 10.9465 12.5865 10.9605L12.8895 10.95Z" fill="#E2E8F0"/>
</svg>
